<?xml version="1.0" encoding="UTF-8"?>
<svg width="33px" height="30px" viewBox="0 0 33 30" version="1.1" xmlns="http://www.w3.org/2000/svg" xmlns:xlink="http://www.w3.org/1999/xlink">
    <!-- Generator: Sketch 52.4 (67378) - http://www.bohemiancoding.com/sketch -->
    <title>noun_Computer_585650_000000</title>
    <desc>Created with Sketch.</desc>
    <g id="Page-1" stroke="none" stroke-width="1" fill="none" fill-rule="evenodd">
        <g id="Edit-Profil-biete" transform="translate(-617.000000, -1137.000000)" fill="#000000" fill-rule="nonzero">
            <g id="noun_Computer_585650_000000" transform="translate(617.000000, 1137.000000)">
                <path d="M30.486701,0 L29.557565,0 L29.0426335,0 L2.66288585,0 C0.787837236,0 0.00421088876,0.762679535 0.00421088876,2.5898343 C-0.00140362959,9.00407403 -0.00140362959,15.4182482 0.00421088876,21.8269841 C0.00421088876,23.6376928 0.759831483,24.3893645 2.59009763,24.3893645 C6.0771814,24.3948684 9.56987969,24.3948684 13.0569635,24.3893645 C13.0457344,24.5814104 13.0289577,24.7734563 13.0177955,24.9655021 C12.9786276,25.5306319 12.9562363,26.1012656 12.8778336,26.6609571 C12.8554424,26.8255491 12.8162744,26.9791989 12.7602629,27.1273448 C12.5923621,27.6266247 12.2565604,28.0326663 11.7751823,28.3289582 C11.5960524,28.4386425 11.4169225,28.542954 11.2378595,28.6526383 C10.9244491,28.8391803 10.6053573,29.0202839 10.2975614,29.2123298 C10.1575994,29.2946258 10.0233189,29.4208217 9.95614518,29.5580254 C9.84980353,29.7829635 9.95053067,29.9475555 10.2079964,29.9914554 C10.2919469,30.0024632 10.3759641,29.9914554 10.4598477,29.9914554 C14.5234222,29.9914554 18.5870635,29.9969593 22.6450235,29.9914554 C22.8633213,29.9914554 23.148726,30.0683131 23.210352,29.7610135 C23.2662967,29.4866716 23.0648424,29.3330218 22.8465446,29.2068259 C22.5163574,29.01478 22.1861035,28.8172303 21.8558495,28.6251845 C21.7327311,28.5483923 21.6095459,28.4770386 21.4864275,28.4056848 C20.9771105,28.109393 20.6244653,27.7197974 20.4285587,27.2315252 C20.3278316,26.9955794 20.2718869,26.7321798 20.2494288,26.4468957 C20.2046464,25.7720161 20.1430872,25.0916325 20.0871425,24.389299 L30.4868346,24.389299 C32.2107591,24.389299 33,23.6046695 33,21.8982723 L33,2.43618452 C32.9942518,0.812017825 32.1546808,0 30.486701,0 Z M17.7305821,22.5512676 C17.4731163,22.9957053 16.9917382,23.297501 16.4656445,23.275551 C15.9450984,23.2591049 15.5028883,22.968317 15.2678137,22.5512676 C15.1502431,22.3427756 15.0830694,22.0958221 15.0830694,21.832488 C15.0942984,21.0588662 15.7267338,20.427821 16.4991979,20.4223171 C17.299601,20.4223171 17.9264887,21.0807506 17.9096451,21.9037762 C17.9040975,22.1342181 17.8369906,22.3592217 17.7305821,22.5512676 Z M30.2907944,19.226142 C21.1225533,19.2096959 11.9542453,19.2151343 2.78600421,19.2151343 C1.83447703,19.2151343 1.80647128,19.1822421 1.80647128,18.2384589 L1.80647128,2.89156448 C1.80647128,1.79970093 1.81763348,1.79419705 2.96506724,1.79419705 C6.27656364,1.78895527 24.5081078,1.78869318 29.0425666,1.78869318 L29.5574982,1.78869318 L30.1732237,1.78869318 C31.1415276,1.78869318 31.1863101,1.82708925 31.1863101,2.74341857 C31.1919246,7.9340294 31.1806955,13.1192019 31.2030868,18.3043088 C31.2087681,18.9737501 31.0128615,19.226142 30.2907944,19.226142 Z" id="Shape"></path>
            </g>
        </g>
    </g>
</svg>