<svg id="Ebene_1" data-name="Ebene 1" xmlns="http://www.w3.org/2000/svg" xmlns:xlink="http://www.w3.org/1999/xlink" width="80.06mm" height="39.12mm" viewBox="0 0 226.94 110.9">
  <defs>
    <clipPath id="clip-path" transform="translate(-538.16 -582.09)">
      <rect x="518" y="582.09" width="268.35" height="119.44" style="fill: none"/>
    </clipPath>
  </defs>
  <title>logo</title>
  <g style="clip-path: url(#clip-path)">
    <g>
      <path d="M594.13,661.65c0,16.8-9,31.34-27.94,31.34s-28-14.54-28-31.34c0-17.07,11.4-31.69,28-31.69S594.13,644.58,594.13,661.65Zm-44.83-.18c0,11.93,5.83,21.07,16.89,21.07s16.89-9,16.89-21.07c0-11.32-6-21.5-16.89-21.5S549.3,650.24,549.3,661.47Z" transform="translate(-538.16 -582.09)" style="fill: #1d1d1b"/>
      <path d="M630.6,645.54,628.78,656h-.53a9.62,9.62,0,0,0-7-3.22c-5.66,0-8.35,5.05-8.35,13.05v26.12H602.4V643.19h8.79l.79,6.44h.26c1.91-5,5.74-7.48,10.18-7.48A10.86,10.86,0,0,1,630.6,645.54Z" transform="translate(-538.16 -582.09)" style="fill: #1d1d1b"/>
      <path d="M677.35,667.13c0,1.48-.09,3.57-.09,3.57H643.14c.17,7.14,5.22,12.54,12.71,12.54,6.44,0,11.66-4.53,13.93-8.1h.52l4.7,9.31c-2.52,3.66-9.58,8.54-19.15,8.54-14.54,0-23.42-10.28-23.42-25.34s10.1-25.5,22.63-25.5S677.35,652.24,677.35,667.13Zm-34-4.7h23.07a11.28,11.28,0,0,0-11.41-10.71C648.1,651.72,644.18,657.38,643.4,662.43Z" transform="translate(-538.16 -582.09)" style="fill: #1d1d1b"/>
      <path d="M695.46,666.52l16.88-23.33h12.89L706.42,667.3l19.16,24.64H712.26l-16.8-23.16h-.27v23.16H684.75V627.35h10.53v39.17Z" transform="translate(-538.16 -582.09)" style="fill: #1d1d1b"/>
      <path d="M765.1,659.38v32.56h-8.27l-1.14-6.44h-.26c-2.78,4.61-7.66,7.49-14.36,7.49-9.66,0-14.54-5.32-14.54-13.5,0-7.57,3.83-12.88,15.06-15.32,11.49-2.35,13.23-3.92,13.23-7,0-3.31-2.61-5.75-8.44-5.75s-10.53,4-13.58,9.23h-.52l-5.4-8.62a23.45,23.45,0,0,1,19.59-9.92C757.61,642.15,765.1,648.5,765.1,659.38Zm-10.45,8.45c-1,1.82-3.74,2.87-10,4.35s-8,3.66-8,6.53c0,3.13,2.35,5,6.09,5,6.1,0,12.1-3.83,12.1-9v-6.87Z" transform="translate(-538.16 -582.09)" style="fill: #1d1d1b"/>
    </g>
    <polygon points="116.3 46.76 91.89 22.35 98.97 15.27 116.32 32.62 149.08 0 156.14 7.09 116.3 46.76" style="fill: #1d1d1b"/>
  </g>
</svg>
