<?xml version="1.0" encoding="utf-8"?>
<!-- Generator: Adobe Illustrator 22.1.0, SVG Export Plug-In . SVG Version: 6.00 Build 0)  -->
<svg version="1.1" id="Ebene_1" xmlns="http://www.w3.org/2000/svg" xmlns:xlink="http://www.w3.org/1999/xlink" x="0px" y="0px"
	 viewBox="0 0 100 100" style="enable-background:new 0 0 100 100;" xml:space="preserve">
<style type="text/css">
	.st0{opacity:0.22;}
</style>
<path class="st0" d="M96,90.3c-2.7-6.1-16-10.2-24.9-14c-8.8-3.8-7.6-6.1-7.9-9.3c-0.1-0.9-0.1-2-0.1-3c2.7-2.5,4.8-5.8,6.3-9.6
	c0,0,0.1-0.2,0.1-0.3c0.3-0.9,0.6-1.8,0.9-2.8c2-0.4,3.2-2.5,3.7-4.5c0.5-0.8,1.4-2.8,1.2-5c-0.2-2.2-1-3.5-1.9-4.3
	c0.5-2,0.7-4.1,0.7-6.2c0-9.8-5.1-18.4-12.7-22.6C61.1,3.9,56.3,0,50.4,0S39.7,3.9,39.5,8.7C31.9,13,26.8,21.5,26.8,31.3
	c0,2,0.2,3.9,0.6,5.8c-1.3,0.6-2.4,2-2.6,4.7c-0.2,2.3,0.7,4.2,1.2,5c0.5,2,1.7,4.2,3.8,4.6c0.3,1,0.6,1.9,0.9,2.8
	c0,0.1,0,0.1,0.1,0.2l0,0.1c1.5,3.8,3.7,7.2,6.5,9.8c0,1,0,1.9-0.1,2.8c-0.3,3.2,0.6,5.5-8.2,9.3C20,80.1,6.7,84.1,4,90.3
	c-2.7,6.1-1.6,9.7-1.6,9.7h95.3C97.6,100,98.7,96.4,96,90.3z"/>
</svg>
