<?xml version="1.0" encoding="UTF-8"?>
<svg width="24px" height="33px" viewBox="0 0 24 33" version="1.1" xmlns="http://www.w3.org/2000/svg" xmlns:xlink="http://www.w3.org/1999/xlink">
    <!-- Generator: Sketch 52.4 (67378) - http://www.bohemiancoding.com/sketch -->
    <title>noun_officer_1764248_000000</title>
    <desc>Created with Sketch.</desc>
    <g id="Page-1" stroke="none" stroke-width="1" fill="none" fill-rule="evenodd">
        <g id="Edit-Profil-biete" transform="translate(-516.000000, -1135.000000)" fill="#000000" fill-rule="nonzero">
            <g id="noun_officer_1764248_000000" transform="translate(516.000000, 1135.000000)">
                <path d="M16.0758621,17 C16.0758621,20.003879 13.68,32.5034911 13.68,32.5034911 L12.8275862,20.8644944 L11.1268966,20.8644944 L10.2455172,32.5034911 C10.2455172,32.5034911 7.92413793,20.1404189 7.92413793,17 C6.57103448,17.0331006 4.2,17.670287 3.21931034,18.6964055 C0.674482759,21.3237652 0.0951724138,28.7962245 0,33 L24,33 C23.8882759,28.7838117 23.3006897,21.2906646 20.7434483,18.67158 C19.7668966,17.6578743 17.4165517,17.0331006 16.0758621,17 Z" id="Shape"></path>
                <path d="M13.0011566,0 C9.72828303,0 6.66586979,2.27755308 6.12898108,5.25556117 C5.98294735,6.01617796 5.73383098,8.12613751 6.88062528,12.4620829 C7.54636729,14.9802831 9.72828303,17 13.0011566,17 C16.2740303,17 18.4516509,14.9845804 19.1173929,12.4620829 C20.2641872,8.12184024 20.0150708,6.01617796 19.8776273,5.2512639 C19.3321484,2.27755308 16.2697351,0 13.0011566,0" id="Shape"></path>
                <polygon id="Shape" points="10 18 13 18 12.3247232 20 10.8265683 19.9962406"></polygon>
            </g>
        </g>
    </g>
</svg>