<?xml version="1.0" encoding="UTF-8"?>
<svg width="31px" height="39px" viewBox="0 0 31 39" version="1.1" xmlns="http://www.w3.org/2000/svg" xmlns:xlink="http://www.w3.org/1999/xlink">
    <!-- Generator: Sketch 52.4 (67378) - http://www.bohemiancoding.com/sketch -->
    <title>noun_grocery bag_275627_000000</title>
    <desc>Created with Sketch.</desc>
    <g id="Page-1" stroke="none" stroke-width="1" fill="none" fill-rule="evenodd">
        <g id="Edit-Profil-biete" transform="translate(-294.000000, -1129.000000)" fill="#000000" fill-rule="nonzero">
            <g id="noun_grocery-bag_275627_000000" transform="translate(294.000000, 1129.000000)">
                <path d="M21.5281387,16.9713824 C21.6105771,16.9911946 21.6953486,17 21.7777869,17 C22.1020962,17 22.4046293,16.8563615 22.5142879,16.6268701 C22.7569366,16.1216588 23.5362122,15.8503417 24.2501593,16.0214971 C25.7760463,16.3869223 27.4403674,15.8074152 27.958329,14.7270996 C28.0967632,14.4398226 27.8790016,14.12723 27.4722539,14.0292697 C27.0639509,13.9318596 26.6237612,14.0854042 26.4853271,14.3737819 C26.2434561,14.8795435 25.4649582,15.1508607 24.7494556,14.9786046 C23.2259018,14.6148304 21.5600252,15.1932368 21.0412859,16.2730021 C20.9036294,16.5602791 21.1213911,16.873422 21.5281387,16.9713824" id="Shape"></path>
                <path d="M23.5284463,11.9708484 C23.6108856,11.9906495 23.6948804,12 23.7780974,12 C24.1016329,12 24.4041697,11.8558922 24.5146073,11.6265297 C24.6320444,11.3817664 24.8770292,11.1837556 25.2044533,11.0693494 C25.5326551,10.9549432 25.9044098,10.9384423 26.2504995,11.0214968 C27.775627,11.3867166 29.4407458,10.8080852 29.9587136,9.72782643 C30.0963717,9.44016079 29.8786075,9.1277438 29.471855,9.02983848 C29.0651024,8.93083309 28.6233521,9.08649156 28.485694,9.3741572 C28.2430424,9.88018472 27.4660906,10.1513495 26.7498018,9.97974013 C26.0094033,9.80153044 25.216897,9.83838245 24.5169404,10.0825957 C23.8169839,10.327359 23.2927943,10.749782 23.0415876,11.2728605 C22.9031518,11.5605261 23.1216938,11.8729431 23.5284463,11.9708484" id="Shape"></path>
                <path d="M23.5194379,7.96739773 C23.6013907,7.98954267 23.6848754,8 23.7660623,8 C24.0854486,8 24.3833893,7.83883404 24.4913832,7.58232181 C24.6675435,7.16525875 25.2350861,6.94073366 25.7536101,7.08283036 C26.3931485,7.2569142 27.0786419,7.22062111 27.6844801,6.98194785 C28.2895525,6.74204433 28.7422079,6.32682668 28.9589616,5.81318708 C29.0952944,5.49208544 28.8808384,5.14207234 28.4802651,5.03319305 C28.078926,4.92308348 27.6446526,5.09593705 27.5090858,5.41826897 C27.4233033,5.62064912 27.2448453,5.78366049 27.0066459,5.87839163 C26.7684466,5.97250763 26.4988447,5.98604065 26.246093,5.91714528 C24.9279544,5.55975054 23.4888013,6.12813735 23.0407414,7.18678856 C22.9051746,7.50850534 23.1188647,7.8579033 23.5194379,7.96739773" id="Shape"></path>
                <path d="M28.7700894,17.1746458 C30.1396238,12.7399655 30.8912143,8.39452809 30.9986828,4.257095 C31.0296834,3.07085237 30.5109412,1.72259974 29.7097498,0.902939029 C28.7528669,-0.0752992562 27.4508448,-0.275065811 26.166734,0.383957876 C24.108988,1.44182819 22.6374963,4.55365566 21.4553429,7.05519974 C21.3871417,7.19936117 21.3203183,7.34009019 21.2541839,7.47944624 C20.9930906,6.28290636 20.1994771,5.25936019 19.0710579,4.72527641 C18.8051423,3.45116395 17.7910806,2.45370414 16.5173034,2.19490005 C16.5035254,2.1241923 16.4856139,2.05348455 16.4649469,1.9827768 C16.2024758,1.08966241 15.4102401,0.416222577 14.4953801,0.307758262 C13.9663045,0.243228859 13.4647848,0.354439106 13.0307774,0.60637837 C12.65946,0.401119951 12.2406085,0.29128267 11.8128012,0.29128267 C10.6154919,0.29128267 9.60900817,1.12330007 9.34653705,2.237462 C8.03693701,2.59306019 7.07592068,3.79097304 7.06627607,5.18316058 C5.57136177,5.56759106 4.48358773,6.91309776 4.48358773,8.51328965 C4.48358773,8.93753615 4.5635002,9.35835023 4.71781393,9.75376444 C4.32996289,10.2308701 4.11502591,10.8281103 4.11502591,11.4541829 C4.11502591,11.8303755 4.19287168,12.193525 4.3396075,12.5278423 C3.65139581,11.7795758 2.68349047,11.1679194 1.59502752,11.2077355 C1.21475439,11.2194057 0.916460433,11.5358743 0.928171743,11.9154994 C0.939194153,12.2868867 1.24575492,12.5807015 1.61638344,12.5807015 C1.63911716,12.5813879 1.66116198,12.5793285 1.6825179,12.5793285 C2.32801776,12.5793285 2.92805018,13.004948 3.36481316,13.4985292 C2.27221681,13.8129385 0.955038866,14.3229953 0.340539533,15.4783462 C-0.0280222867,16.1723806 -0.0721119249,17.0236195 0.171758887,17.9984254 C0.0491345803,18.1981919 -0.0107997717,18.4322826 0.00160043905,18.6835354 L1.17479816,35.2874999 C1.28157775,37.3696029 3.00382924,39 5.09533146,39 L24.4334601,39 C26.5249624,39 28.2472138,37.3696029 28.3539934,35.3005431 L29.5568139,18.1068897 C29.5692141,17.8604423 29.4789681,17.6167408 29.3094986,17.4382552 C29.1662072,17.2886019 28.9719373,17.2021051 28.7700894,17.1746458 Z M21.8163268,9.44347412 C22.0891314,8.9354767 22.3867365,8.30665826 22.7022529,7.64076975 C23.7376705,5.4488295 25.1561169,2.44821228 26.7984559,1.60452466 C27.5424685,1.22284011 28.1783238,1.30521807 28.7225553,1.86126931 C29.3363657,2.48871478 29.639482,3.52393115 29.6215705,4.22139789 C29.5161687,8.27988543 28.7721561,12.5511827 27.4095107,16.9172146 C27.3647322,17.0606896 27.2655305,17.3503854 27.1243059,17.7485455 L25.9504193,18.2682132 C25.9249299,18.2798834 25.9001295,18.2922401 25.876018,18.3073427 C25.5439679,18.5057363 25.1602503,18.6039034 24.7765326,18.6080223 C24.392815,18.6039034 24.0097863,18.5057363 23.6777362,18.3073427 L23.1865501,18.013528 C22.6340518,17.6826432 22.0002632,17.5082765 21.3554523,17.5082765 C21.1811604,17.5082765 21.0082464,17.5233791 20.837399,17.5480925 C20.3599909,17.609876 19.8942941,17.7643347 19.4775092,18.013528 L18.987012,18.3073427 C18.7190297,18.4672933 18.4152245,18.5455523 18.1072859,18.57919 C18.1224418,18.5270173 18.1396643,18.476904 18.1548201,18.4254178 C18.3456456,17.7773778 18.5516268,17.1375757 18.7665638,16.5039519 C18.8450985,16.2719206 18.9270777,16.0419488 19.0090568,15.811977 C19.1888599,15.3080985 19.3769298,14.8097118 19.5718886,14.3161305 C19.6545567,14.1046937 19.7351581,13.891884 19.8212706,13.6825067 C20.421992,12.2202979 21.0860921,10.802024 21.8163268,9.44347412 Z M13.8574582,17.5652546 C13.7816791,17.5782978 13.7065889,17.5920274 13.6321877,17.609876 C13.4048505,17.6599892 13.1816467,17.7279511 12.9673986,17.8219992 L12.8358186,17.2199536 C13.0342219,17.2364292 13.2312475,17.2529048 13.4172507,17.2529048 C14.6186933,17.2529048 15.5859098,16.8966201 16.6977953,16.1085376 C17.0484457,15.8600308 17.3577621,15.6719344 17.6526116,15.5161028 C17.5899216,15.6945884 17.5265427,15.8737605 17.4652306,16.053619 C17.4218299,16.1826778 17.3742957,16.3096772 17.330895,16.4394224 C17.1283582,17.0503923 16.935466,17.6654811 16.755663,18.2867482 L16.2975441,18.013528 C15.7443569,17.6826432 15.1112572,17.5082765 14.4664463,17.5082765 C14.2997323,17.5082765 14.1350851,17.5240656 13.9711268,17.5467195 C13.9325483,17.5515249 13.8953477,17.5597627 13.8574582,17.5652546 Z M12.7627951,8.28675026 C12.6084814,8.31832847 12.4555454,8.21604251 12.423856,8.06982162 C12.3907888,7.91948185 12.4899905,7.76433669 12.6415486,7.7313855 L16.5055921,6.89662217 C16.6392388,6.89662217 16.7570408,6.98998385 16.7852857,7.11972914 C16.8073305,7.21789621 16.769441,7.29615528 16.7453295,7.33322536 C16.7212179,7.37029544 16.6667948,7.43619781 16.5675931,7.45747878 L12.7627951,8.28675026 Z M13.0342219,11.0711253 C13.1148233,10.9674664 13.193358,10.8679264 13.2691371,10.7670134 C13.3235602,10.6949326 13.3717832,10.620106 13.4110506,10.5452793 C13.581209,10.2274377 13.6204764,9.87115304 13.5419417,9.52173319 L16.4174128,8.89566068 C16.436702,8.98353051 16.4566801,9.07071385 16.4897473,9.15171884 C16.6185718,9.46612806 16.8486646,9.72767809 17.1696922,9.91028257 C17.2744051,9.96794714 17.3839403,10.0256117 17.4962311,10.0853357 C17.5892327,10.134076 17.6829232,10.1848758 17.7759248,10.2356755 C17.8207033,10.2597024 17.8661707,10.2837293 17.9109493,10.3091292 C17.9929284,10.3544371 18.0714631,10.4059233 18.1513756,10.4553501 C18.2195767,10.4972255 18.287089,10.540474 18.3532235,10.5864683 C18.4296914,10.6393275 18.5034038,10.6976786 18.5757384,10.7567161 C18.6398061,10.8088888 18.7011183,10.8658669 18.7617415,10.924218 C18.8271871,10.9880609 18.8919437,11.0532768 18.9518781,11.124671 C19.0579688,11.2509839 19.1599261,11.3821021 19.2439719,11.5393067 C18.9518781,12.1825413 18.6770067,12.8374461 18.4110911,13.4992157 C18.3697571,13.6008152 18.3256674,13.7003553 18.2850223,13.8033277 C17.5299872,13.99417 16.8004415,14.3511411 15.8993595,14.9902568 C14.7640513,15.7941284 13.9187703,16.0069382 12.5258133,15.8057986 L12.1076506,13.8987488 C11.8245125,12.6081608 12.4397007,11.8269431 13.0342219,11.0711253 Z M8.95524151,28.1405253 C9.33551464,28.1405253 9.64414211,28.4473832 9.64414211,28.8270083 C9.64414211,29.2066334 9.33551464,29.5134913 8.95524151,29.5134913 L4.13293732,29.5134913 C3.75266419,29.5134913 3.44403673,29.2066334 3.44403673,28.8270083 C3.44403673,28.4473832 3.75266419,28.1405253 4.13293732,28.1405253 L8.95524151,28.1405253 Z M4.13293732,30.8864573 L10.3330427,30.8864573 C10.7133158,30.8864573 11.0219433,31.1933152 11.0219433,31.5729403 C11.0219433,31.9525654 10.7133158,32.2594234 10.3330427,32.2594234 L4.13293732,32.2594234 C3.75266419,32.2594234 3.44403673,31.9525654 3.44403673,31.5729403 C3.44403673,31.1933152 3.75266419,30.8864573 4.13293732,30.8864573 Z M5.98401323,10.4210259 L6.43455422,10.0503251 L6.14177147,9.54713306 C5.95852391,9.23135087 5.86138892,8.87369323 5.86138892,8.51328965 C5.86138892,7.40118718 6.73560378,6.49434312 7.85162275,6.44766228 L8.68863698,6.41265165 L8.49367811,5.60191521 C8.46061088,5.46599158 8.44407726,5.33212739 8.44407726,5.20512804 C8.44407726,4.32093792 9.13711127,3.57610386 10.0216596,3.50882852 L10.6582038,3.46077471 L10.6582038,2.77772412 C10.677493,2.15988942 11.1886572,1.66424868 11.8128012,1.66424868 C12.1724073,1.66424868 12.4300561,1.82763164 12.5823032,1.96492824 L13.0652225,2.39947198 L13.5288526,1.94364727 C13.7403451,1.73495643 14.024861,1.63335695 14.3327996,1.67111351 C14.7013614,1.71504843 15.0347893,2.00199832 15.1429467,2.36995322 C15.1794584,2.49352016 15.1897919,2.61228172 15.175325,2.73447569 L15.0947236,3.50127721 L15.8711146,3.50127721 C16.8603759,3.50127721 17.6884344,4.27219763 17.7566355,5.25661426 L17.788325,5.7076336 L18.2161322,5.85728689 C19.2928839,6.23416606 20.0010737,7.24947443 19.9769622,8.38560381 C19.9666287,8.87094729 19.8095593,9.33775574 19.5250434,9.74827258 C19.0641689,9.35766375 18.5674715,9.09474075 18.1493089,8.87575268 C18.0411515,8.81877459 17.9364386,8.76385595 17.8310368,8.70550489 C17.8014141,8.6890293 17.7662802,8.66019701 17.7538799,8.5881163 C17.7366574,8.48994923 17.7738581,8.37050118 17.8496371,8.28331784 C18.1499978,7.93595744 18.2705554,7.46228416 18.1727315,7.01538373 L18.0900634,6.63781807 C17.9212828,5.86827062 17.1145802,5.34860298 16.3423226,5.52091022 L16.1576973,5.56072623 C16.1556306,5.56141272 16.1535639,5.56141272 16.1514972,5.56141272 L14.1295739,6.00213481 L12.1565626,6.43187317 C11.3657047,6.6041804 10.8628073,7.38539807 11.0357213,8.17416704 L11.0770553,8.36089042 C11.0770553,8.3615769 11.0770553,8.36226339 11.0777442,8.36294987 C11.0777442,8.36432284 11.0777442,8.36500932 11.0784331,8.3656958 L11.1190783,8.5517327 C11.2189689,9.00893038 11.5379298,9.39336086 11.9712483,9.57939776 C12.0787168,9.62539212 12.1682739,9.71257546 12.1985855,9.80113177 C12.2171858,9.85193151 12.2068523,9.87801787 12.1668961,9.94392023 C12.098006,10.0352225 12.0249826,10.1285842 11.9498924,10.2233188 C11.8734244,10.3201129 11.7942009,10.4223989 11.7135995,10.5281173 C11.689488,10.560382 11.6653765,10.5940196 11.640576,10.6269708 C11.5813306,10.7066029 11.522774,10.7889808 11.4635286,10.8741047 C11.4339059,10.9173531 11.404972,10.9612881 11.3760382,11.0065959 C11.3229929,11.0882874 11.2713253,11.1720383 11.2210356,11.2592217 C11.1927906,11.3072755 11.1652346,11.3553293 11.1376786,11.406129 C11.0860111,11.5029231 11.037788,11.6045226 10.9916317,11.708868 C10.9730314,11.7521165 10.9516754,11.7933055 10.933764,11.8372404 C10.8731408,11.9875801 10.8194065,12.1440983 10.7760058,12.3095407 C10.7698057,12.3342541 10.7670501,12.3610269 10.7615389,12.3857403 C10.7277827,12.5271558 10.7009156,12.6733767 10.6836931,12.8257759 C10.6768041,12.8861864 10.6754263,12.9493428 10.6712929,13.0118128 C10.6664706,13.0928178 10.6554482,13.1703904 10.6554482,13.2541413 C10.636159,13.2280549 10.6161808,13.206774 10.5962027,13.1806876 C10.5514242,13.1223366 10.5052679,13.0681044 10.4598004,13.0118128 C10.3578431,12.8861864 10.2558858,12.7667384 10.1532396,12.6555281 C10.102261,12.6006095 10.0519713,12.5456908 10.0009926,12.4942046 C9.89283522,12.3843673 9.78398893,12.2834543 9.67445373,12.1894062 C9.6338086,12.1543955 9.59385236,12.1145795 9.55320723,12.0816283 C9.4071603,11.9642397 9.26042447,11.8592078 9.11299974,11.7685921 C9.06822121,11.7404463 9.02275377,11.7198518 8.97797523,11.6951384 C8.87119563,11.6354144 8.76372714,11.5804957 8.65556975,11.5345014 C8.5963243,11.5091015 8.53638994,11.487134 8.47645559,11.4665395 C8.37863171,11.4315289 8.27943002,11.4033831 8.18022834,11.3793562 C8.12029398,11.3656265 8.06035963,11.349151 8.00042528,11.3388537 C7.87504537,11.3182592 7.74897656,11.3072755 7.62221885,11.3031566 C7.59259613,11.3024701 7.5643512,11.2949188 7.53472848,11.2949188 C6.81896075,11.2949188 6.16726079,11.5729444 5.58927319,11.9484506 C5.52589433,11.7933055 5.4928271,11.6264901 5.4928271,11.4541829 C5.4928271,11.0532768 5.67194126,10.6763976 5.98401323,10.4210259 Z M1.55782689,16.1208943 C1.84923184,15.5737674 2.55673276,15.1563857 3.78504252,14.8062794 C4.36027452,14.6428964 4.89279468,14.338098 5.32542426,13.9255217 C5.51831643,13.7415442 5.70018618,13.5836531 5.87516694,13.4415512 C6.03154737,13.3138653 6.1824166,13.2033416 6.32777463,13.1079204 C6.33328583,13.104488 6.33879704,13.1010556 6.34430824,13.0976232 C6.63226869,12.9108998 6.89887322,12.7866464 7.14963304,12.7228034 C7.15996655,12.7200575 7.16961116,12.7179981 7.17994467,12.7152521 C7.30256897,12.6864198 7.42174878,12.6699443 7.53679518,12.6699443 C8.40343213,12.6699443 9.33275904,13.5314804 10.2992866,15.2305259 C10.8056285,16.1208943 10.9744092,17.4355093 10.7546499,18.5819359 C10.7036712,18.5771305 10.6526926,18.5702657 10.6017139,18.5620279 C10.3543986,18.5146606 10.1146612,18.435715 9.89972423,18.3073427 L9.4085381,18.013528 C8.85535092,17.6826432 8.22225127,17.5082765 7.57744031,17.5082765 C7.40314846,17.5082765 7.23023441,17.5233791 7.05938706,17.5480925 C6.58197895,17.609876 6.11628214,17.7643347 5.69949728,18.013528 L5.46113768,18.1563165 C5.05261962,18.4007044 4.58141161,18.5228984 4.1095147,18.5270173 C3.63761779,18.5228984 3.16709869,18.4007044 2.75858063,18.1563165 L1.83063153,17.6009517 C1.71007392,17.5295575 1.57849391,17.4801307 1.44209159,17.4540443 C1.33324529,16.9103498 1.37182373,16.4710007 1.55782689,16.1208943 Z M11.7108439,35.0053554 L4.13293732,35.0053554 C3.75266419,35.0053554 3.44403673,34.6984975 3.44403673,34.3188724 C3.44403673,33.9392473 3.75266419,33.6323894 4.13293732,33.6323894 L11.7108439,33.6323894 C12.091117,33.6323894 12.3997445,33.9392473 12.3997445,34.3188724 C12.3997445,34.6984975 12.091117,35.0053554 11.7108439,35.0053554 Z M15.8442475,35.0053554 L14.4664463,35.0053554 C14.0861732,35.0053554 13.7775457,34.6984975 13.7775457,34.3188724 C13.7775457,33.9392473 14.0861732,33.6323894 14.4664463,33.6323894 L15.8442475,33.6323894 C16.2245206,33.6323894 16.5331481,33.9392473 16.5331481,34.3188724 C16.5331481,34.6984975 16.2245206,35.0053554 15.8442475,35.0053554 Z" id="Shape"></path>
            </g>
        </g>
    </g>
</svg>