<?xml version="1.0" encoding="UTF-8"?>
<svg width="35px" height="36px" viewBox="0 0 35 36" version="1.1" xmlns="http://www.w3.org/2000/svg" xmlns:xlink="http://www.w3.org/1999/xlink">
    <!-- Generator: Sketch 52.4 (67378) - http://www.bohemiancoding.com/sketch -->
    <title>noun_balance_527915_000000</title>
    <desc>Created with Sketch.</desc>
    <g id="Page-1" stroke="none" stroke-width="1" fill="none" fill-rule="evenodd">
        <g id="Edit-Profil-biete" transform="translate(-401.000000, -1131.000000)" fill="#000000" fill-rule="nonzero">
            <g id="noun_balance_527915_000000" transform="translate(401.000000, 1131.000000)">
                <path d="M6.38947368,25.59375 L6.38947368,27 L7.73684211,27 L7.73684211,25.59375 C8.45263158,25.4330357 9,24.8303571 9,24.1071429 L9,23.5044643 C9,23.0223214 8.70526316,22.5803571 8.15789474,22.2589286 L7.90526316,22.0982143 L6.68421053,21.65625 L6.64210526,21.65625 L6.51578947,21.6160714 C6.38947368,21.5357143 6.34736842,21.4955357 6.34736842,21.4955357 L6.34736842,20.8928571 C6.34736842,20.7321429 6.47368421,20.6116071 6.64210526,20.6116071 L7.4,20.6116071 C7.56842105,20.6116071 7.65263158,20.7321429 7.65263158,20.8928571 L7.65263158,21.1741071 L9,21.1741071 L9,20.8928571 C9,20.1696429 8.45263158,19.5267857 7.73684211,19.40625 L7.73684211,18 L6.38947368,18 L6.38947368,19.3660714 C5.63157895,19.4866071 5,20.0892857 5,20.8928571 L5,21.4955357 C5,21.8169643 5.12631579,22.2991071 5.84210526,22.7410714 L6.13684211,22.8616071 L7.44210526,23.34375 C7.56842105,23.4241071 7.61052632,23.5044643 7.61052632,23.5044643 L7.61052632,24.1071429 C7.61052632,24.2678571 7.48421053,24.3883929 7.35789474,24.3883929 L6.6,24.3883929 C6.43157895,24.3883929 6.34736842,24.2678571 6.34736842,24.1071429 L6.34736842,23.8258929 L5,23.8258929 L5,24.1071429 C5,24.8303571 5.63157895,25.4732143 6.38947368,25.59375 Z" id="Shape"></path>
                <path d="M12.6086957,29 C13.9130435,29 15,27.95547 15,26.7020341 C15,26.6184717 15,26.5349093 14.9565217,26.4513469 L8.2173913,10.6162727 C8.2173913,10.4909291 8.17391304,10.4073667 8.08695652,10.2820231 C7.82608696,9.9059923 7.17391304,9.9059923 6.91304348,10.2820231 C6.82608696,10.4073667 6.7826087,10.4909291 6.7826087,10.6162727 L0.0434782609,26.4513469 C0,26.5349093 0,26.6184717 0,26.7020341 C0,27.95547 1.08695652,29 2.39130435,29 L12.6086957,29 Z M1.39130435,26.8273777 L1.56521739,26.3677845 L5,26.3677845 L5,25.0307861 L2.13043478,25.0307861 L7.47826087,12.4964266 L12.826087,25.0307861 L9.95652174,25.0307861 L9.95652174,26.3677845 L13.3913043,26.3677845 L13.6086957,26.8273777 C13.5652174,27.3287521 13.1304348,27.7047828 12.6086957,27.7047828 L2.39130435,27.7047828 C1.86956522,27.7047828 1.43478261,27.2869709 1.39130435,26.8273777 Z" id="Shape"></path>
                <path d="M29.5416667,4.26874585 C29.2916667,3.91041805 28.6666667,3.91041805 28.4166667,4.26874585 C28.3333333,4.34837425 28.3333333,4.46781685 28.2916667,4.58725946 L23.0416667,16.8500332 C23,16.9296616 23,17.00929 23,17.0889184 C23,18.1240876 23.9166667,19 25,19 L33,19 C34.0833333,19 35,18.1240876 35,17.0889184 C35,17.00929 35,16.9296616 34.9583333,16.8500332 L29.6666667,4.54744526 C29.6666667,4.46781685 29.625,4.34837425 29.5416667,4.26874585 Z M25,15.6954214 L29,6.37889847 L33,15.6954214 L25,15.6954214 Z" id="Shape"></path>
                <path d="M31.0712812,34.0069204 L21.5186661,34.0069204 C21.0577943,33.2179931 20.3036405,32.6366782 19.4237944,32.3460208 L19.4237944,6.47750865 L29.898153,3.48788927 L29.898153,4.3183391 L31.2388709,4.3183391 L31.2388709,2.61591696 C31.2388709,2.4083045 31.1550761,2.20069204 30.9874863,2.07612457 C30.8198966,1.95155709 30.6104094,1.9100346 30.4009223,1.95155709 L20.6807174,4.73356401 C20.8064097,4.40138408 20.8902046,4.06920415 20.8902046,3.69550173 C20.8902046,2.36678201 19.968461,1.24567474 18.711538,0.955017301 L18.711538,0 L17.3708201,0 L17.3708201,0.996539792 C16.113897,1.28719723 15.1921535,2.4083045 15.1921535,3.73702422 C15.1921535,4.65051903 15.6530253,5.48096886 16.3233842,5.97923875 L5.34625634,9.09342561 C5.0529743,9.17647059 4.88538456,9.42560554 4.88538456,9.71626298 L4.88538456,11.4602076 L6.22610247,11.4602076 L6.22610247,10.2145329 L16.6585637,7.26643599 L16.6585637,32.3460208 C15.7787176,32.6366782 15.0245637,33.2179931 14.563692,34.0069204 L5.01107686,34.0069204 C3.92174356,34.0069204 3,34.8788927 3,36 L32.9985632,36 C33.0404606,34.8788927 32.1606145,34.0069204 31.0712812,34.0069204 Z M17.3708201,2.36678201 L17.3708201,3.65397924 L18.711538,3.65397924 L18.711538,2.4083045 C19.2143072,2.65743945 19.5494867,3.15570934 19.5494867,3.73702422 C19.5494867,4.56747405 18.8791277,5.23183391 18.041179,5.23183391 C17.2032303,5.23183391 16.5328714,4.56747405 16.5328714,3.73702422 C16.5328714,3.15570934 16.8680509,2.61591696 17.3708201,2.36678201 Z" id="Shape"></path>
            </g>
        </g>
    </g>
</svg>