<?xml version="1.0" encoding="UTF-8"?>
<svg width="44px" height="33px" viewBox="0 0 44 33" version="1.1" xmlns="http://www.w3.org/2000/svg" xmlns:xlink="http://www.w3.org/1999/xlink">
    <!-- Generator: Sketch 52.4 (67378) - http://www.bohemiancoding.com/sketch -->
    <title>noun_Watering Can_13900_000000</title>
    <desc>Created with Sketch.</desc>
    <g id="Page-1" stroke="none" stroke-width="1" fill="none" fill-rule="evenodd">
        <g id="Edit-Profil-biete" transform="translate(-177.000000, -1136.000000)" fill="#000000" fill-rule="nonzero">
            <g id="noun_Watering-Can_13900_000000" transform="translate(177.000000, 1136.000000)">
                <path d="M42.7049321,5.81294223 C41.5032911,3.68346297 39.6302096,2.02552053 37.1380475,1.01761599 C34.8289256,0.0827542868 32.1994834,-0.221086573 29.6598013,0.160551378 C27.1108792,0.542189328 24.8140773,1.62313668 22.9805958,3.20457866 C21.3033144,4.65074013 20.0823134,6.59091313 19.3558728,8.75583329 L18.2457519,8.75583329 C17.8858316,8.75583329 17.6024714,8.92223262 17.6024714,9.28009924 L17.6024714,10.6367941 C17.6024714,10.9950929 17.8858316,11.3533917 18.2457519,11.3533917 L37.4522078,11.3533917 C37.8121281,11.3533917 37.8759281,10.9946607 37.8759281,10.6367941 L37.8759281,9.28009924 C37.8759281,8.92223262 37.8121281,8.75583329 37.4522078,8.75583329 L22.1969552,8.75583329 C22.7825956,7.45705408 23.6304763,6.1530884 24.7401573,5.19488756 C26.1939185,3.94148999 28.04632,3.09479832 30.0949617,2.78749981 C34.4426053,2.13573307 38.5808087,3.90777792 40.3905302,7.11301805 C41.5543312,9.17420875 42.7238521,13.415879 37.8754881,20.1902768 L37.8754881,14.3896393 C37.8754881,13.6583466 37.5050078,13.0852414 36.7684472,13.0852414 L18.9286325,13.0852414 C18.1929519,13.0852414 17.5905914,13.5183119 17.5905914,14.3840206 L13.529828,14.3840206 C10.5347455,10.487683 7.33330288,6.46989544 7.33330288,6.46989544 C7.21186278,6.31862332 7.14586272,6.12240177 7.1168227,5.91926492 C7.10802269,5.85616283 7.10450269,5.58041537 7.1168227,5.50737254 C7.1216627,5.47538929 7.19030276,5.2264386 7.2360628,5.14345504 L8.41086377,3.05460315 C8.62998395,2.66129564 8.61810394,2.04583421 8.38006374,1.68018788 C8.14114354,1.31367714 7.63822313,1.21902402 7.25850281,1.46278824 L0.366777119,6.01694349 C-0.0072231904,6.26978403 -0.113703278,6.76725321 0.133576926,7.12728085 C0.38085713,7.48774071 0.946697598,7.7371236 1.39681797,7.68958094 L3.58757978,7.44624893 L3.63025982,7.44538451 C4.08038019,7.39913847 4.62422064,7.63080091 4.87062084,8.0076846 L17.6029114,27.4988813 L17.6029114,31.6709664 C17.6029114,32.402259 18.1933919,33 18.9295125,33 L36.7697672,33 C37.5063278,33 37.8768081,32.402259 37.8768081,31.6709664 L37.8768081,24.5784649 C45.8091347,14.9921345 44.3483335,8.72168901 42.7049321,5.81294223 Z M14.9378292,16.5485085 L17.6020314,16.5485085 L17.6020314,19.4278653 C16.7207106,18.6291485 15.97887,17.8472878 14.9378292,16.5485085 Z" id="Shape"></path>
            </g>
        </g>
    </g>
</svg>