<?xml version="1.0" encoding="UTF-8"?>
<svg width="50px" height="42px" viewBox="0 0 50 42" version="1.1" xmlns="http://www.w3.org/2000/svg" xmlns:xlink="http://www.w3.org/1999/xlink">
    <!-- Generator: Sketch 52.4 (67378) - http://www.bohemiancoding.com/sketch -->
    <title>noun_cleaning_189678_000000</title>
    <desc>Created with Sketch.</desc>
    <g id="Page-1" stroke="none" stroke-width="1" fill="none" fill-rule="evenodd">
        <g id="Edit-Profil-biete" transform="translate(-71.000000, -1127.000000)" fill="#000000" fill-rule="nonzero">
            <g id="noun_cleaning_189678_000000" transform="translate(71.000000, 1127.000000)">
                <path d="M1.61508034,23.2387189 L2.55614288,23.2387189 L2.78820594,24.7564367 C5.43204968,28.5255674 9.67964134,31 14.5002465,31 C19.3164173,31 23.5654871,28.525074 26.2098235,24.7564367 L26.4438574,23.2387189 L27.3829491,23.2387189 C28.2757267,23.2387189 29,22.5129183 29,21.6203463 C29,20.7248139 28.275234,20 27.3829491,20 L1.61508034,20 C0.7227954,20 2.51572031e-07,20.7248139 2.51572031e-07,21.6203463 C-0.000492451324,22.5134117 0.7227954,23.2387189 1.61508034,23.2387189 Z" id="Shape"></path>
                <path d="M15.0024727,32.7324626 C10.8112665,32.7324626 6.99788698,31.3215256 4,29 L5.80308412,39.8206548 C5.80308412,39.8206548 5.69527492,42 10.3473902,42 C15.0019782,42 15.0019782,42 15.0019782,42 C15.0019782,42 15.0019782,42 19.6540934,42 C24.3081868,42 24.198894,39.8206548 24.198894,39.8206548 L26,29 C23.008542,31.3210728 19.1951625,32.7324626 15.0024727,32.7324626 Z" id="Shape"></path>
                <path d="M1.74750266,18 C1.71420226,17.091985 1.94432293,15.5448793 3.66749441,14.4227795 C6.2425597,12.7517577 8.46921335,15.3466135 8.46921335,15.3466135 C8.46921335,15.3466135 9.55768913,10.8460862 14.7252155,10.8460862 C19.8902567,10.8460862 20.2714717,14.3083548 20.2714717,14.3083548 C20.2714717,14.3083548 21.5766486,12.4032107 24.6209016,12.980607 C27.6656517,13.5585306 27.2312554,17.3076517 27.2312554,17.3076517 L27.2411958,18 L28.9688405,18 L28.957409,17.5328099 C29.2153629,15.3276307 28.3540256,11.8131591 24.9285576,11.1640497 C23.2893826,10.8592688 21.9389768,11.1134286 20.9171019,11.5800914 C19.8639146,10.2243965 17.9434258,9 14.7262095,9 C11.1904028,9 9.00251678,10.8123389 7.81563086,12.6078041 C6.439877,11.9133466 4.61978646,11.6375674 2.75844317,12.849836 C0.535268675,14.2967542 -0.0268619661,16.4412936 0.000971204434,18 L1.74750266,18 Z" id="Shape"></path>
                <path d="M15.5002568,5 C14.1191577,5 13,3.87878788 13,2.50128403 C13,1.12275295 14.1191577,0 15.5002568,0 C16.8793015,0 18,1.12326656 18,2.50128403 C18,3.87878788 16.8793015,5 15.5002568,5 Z M15.5002568,0.899845917 C14.6163328,0.899845917 13.8977915,1.61684643 13.8977915,2.50128403 C13.8977915,3.38366718 14.6163328,4.10272214 15.5002568,4.10272214 C16.3816127,4.10272214 17.1006677,3.38366718 17.1006677,2.50128403 C17.1006677,1.61633282 16.3816127,0.899845917 15.5002568,0.899845917 Z" id="Shape"></path>
                <path d="M22.4989223,8 C21.1199241,8 20,6.87792051 20,5.49892232 C20,4.12164842 21.1199241,3 22.4989223,3 C23.8796448,3 25,4.12164842 25,5.49892232 C25,6.87835158 23.8796448,8 22.4989223,8 Z M22.4989223,3.89921545 C21.6178119,3.89921545 20.8983533,4.61781188 20.8983533,5.49892232 C20.8983533,6.38391241 21.6178119,7.09949134 22.4989223,7.09949134 C23.3804638,7.09949134 24.0999224,6.38391241 24.0999224,5.49892232 C24.0999224,4.61781188 23.3804638,3.89921545 22.4989223,3.89921545 Z" id="Shape"></path>
                <path d="M38,21.2037527 C38,21.2037527 37.4065196,19.1146396 36.2664234,17.6307664 C35.1267419,16.1464329 34.7169874,9.9702248 34.7169874,9.9702248 C34.7169874,9.9702248 34.5332614,9 33.841075,9 C33.1493033,9 33,9.93340413 33,9.93340413 L34.5332614,18.1255442 C34.5332614,18.1255442 33.7183145,20.0204282 34.2135036,21.9999998 C34.2139184,22.0004601 37.0179164,21.1268895 38,21.2037527 Z" id="Shape"></path>
                <path d="M39.3429599,22 C39.3429599,22 42.282824,27.4811386 49.3824066,28.7206704 C50.4039147,28.9000442 50.0430558,29.7710798 49.1366188,29.9465542 C48.2327052,30.1215412 46.0932916,30.3243116 44.5862643,29.2202851 C44.5862643,29.2202851 45.6915523,31.1602523 48.3644313,33.0427029 C51.0347868,34.9246661 48.7454781,35.3901607 47.7199323,34.4001925 C46.6959007,33.4107118 44.1052874,31.6062498 44.1052874,31.6062498 C44.1052874,31.6062498 45.7122449,35.6694575 46.2149238,36.4386204 C47.2389554,38.0096039 46.4183169,39.5469548 45.5320678,38.5745341 C44.6463233,37.6030882 42.7183781,32.7122261 42.7183781,32.7122261 C42.7183781,32.7122261 44.9794238,39.4363085 44.374796,39.7853076 C43.7721869,40.1343067 43.4108233,40.1352816 42.8682733,39.1453134 C42.3252186,38.15632 41.1058689,33.395114 41.1058689,33.395114 C41.1058689,33.395114 41.2315387,38.1738675 41.0301643,38.82556 C40.6990826,39.902778 39.7648871,39.2330506 39.8865193,38.7656062 C40.1817674,37.6220979 39.6149919,33.7309526 39.6149919,33.7309526 C39.6149919,33.7309526 39.2839102,38.82556 38.2598786,40.0475444 C36.4798098,42.1688352 36.195665,40.2113205 36.7806096,39.319813 C38.0660747,37.3603486 38.4491402,33.5374433 38.4491402,33.5374433 C38.4491402,33.5374433 36.7210553,38.2728156 34.8208685,39.2915421 C34.0345494,39.714143 33.2684183,38.9318195 33.9189737,38.4190442 C35.2463286,37.3705846 36.8426874,33.3785415 36.8426874,33.3785415 C36.8426874,33.3785415 34.0668501,36.5434176 32.7132509,37.3120931 C31.9789157,37.7273826 31.1209296,36.7783584 31.8093373,36.438133 C33.0448372,35.8259222 35.7151928,32.2340583 35.7151928,32.2340583 C35.7151928,32.2340583 32.3185772,35.1498583 30.9912223,35.8303091 C30.0913463,36.2914169 29.1510945,35.6450861 30.0610644,34.9831576 C32.0228244,33.5525536 34.4297277,31.1700009 34.4297277,31.1700009 C34.4297277,31.1700009 31.1744276,33.5471919 29.8955236,33.9449339 C28.3466063,34.427976 27.6778819,33.734852 30.8155875,31.9849821 C32.7112321,30.9272613 33.4218464,29.4449898 33.4218464,29.4449898 C33.4218464,29.4449898 31.1305189,31.2548135 28.7957873,31.838266 C27.9812052,32.0429861 26.8375602,31.6364704 27.0192514,31.1119968 C27.196905,30.5875233 28.9229711,30.5139215 29.3383373,30.3257739 C32.6213959,28.8415528 33.0625017,27.2164646 33.8286328,25.6990983 C34.18394,24.9937886 34.9303879,22.7457663 34.9303879,22.7457663 L39.3429599,22 Z" id="Shape"></path>
            </g>
        </g>
    </g>
</svg>