<svg version="1.1" id="Ebene_1" xmlns="http://www.w3.org/2000/svg" xmlns:xlink="http://www.w3.org/1999/xlink" x="0" y="0" viewBox="0 0 226.942 110.891" xml:space="preserve"><defs><path id="SVGID_1_" d="M-20.149 0H248.18v119.431H-20.149z"/></defs><clipPath id="SVGID_2_"><use xlink:href="#SVGID_1_" overflow="visible"/></clipPath><g clip-path="url(#SVGID_2_)" fill="#fff"><path d="M55.975 79.554c0 16.799-8.999 31.338-27.938 31.338S.04 96.353.04 79.554c0-17.069 11.399-31.688 27.998-31.688s27.937 14.619 27.937 31.688zm-44.826-.18c0 11.929 5.83 21.068 16.889 21.068s16.889-8.999 16.889-21.068c0-11.319-6-21.498-16.889-21.498S11.149 68.145 11.149 79.374zm81.294-15.929l-1.82 10.459h-.53a9.618 9.618 0 0 0-6.999-3.22c-5.66 0-8.349 5.05-8.349 13.049v26.118h-10.5V61.095h8.789l.79 6.439h.26c1.91-5 5.74-7.479 10.179-7.479a10.862 10.862 0 0 1 8.18 3.39zm46.746 21.588c0 1.48-.09 3.57-.09 3.57h-34.117c.17 7.139 5.22 12.539 12.709 12.539 6.439 0 11.659-4.53 13.929-8.099h.52l4.7 9.309c-2.52 3.66-9.579 8.539-19.149 8.539-14.539 0-23.418-10.279-23.418-25.338s10.099-25.498 22.628-25.498 22.288 10.089 22.288 24.978zm-33.997-4.699h23.068c-.306-6.056-5.346-10.787-11.409-10.709-6.909 0-10.829 5.66-11.609 10.709h-.05zm52.105 4.089l16.879-23.328h12.889l-18.809 24.108 19.158 24.638h-13.319l-16.799-23.158h-.27v23.158h-10.439V45.256h10.529v39.167h.181zm69.635-7.139v32.557h-8.269l-1.14-6.439h-.26c-2.78 4.61-7.659 7.489-14.359 7.489-9.659 0-14.539-5.32-14.539-13.499 0-7.569 3.83-12.879 15.059-15.319 11.489-2.35 13.229-3.92 13.229-6.999 0-3.31-2.61-5.75-8.439-5.75s-10.529 4-13.579 9.229h-.52l-5.4-8.619a23.448 23.448 0 0 1 19.589-9.919c11.139.04 18.628 6.39 18.628 17.269zm-10.449 8.449c-1 1.82-3.74 2.87-9.999 4.35s-7.999 3.66-7.999 6.53c0 3.13 2.35 5 6.09 5 6.1 0 12.099-3.83 12.099-8.999v-6.869l-.191-.012zM116.301 46.756L91.893 22.348l7.079-7.079 17.349 17.348L149.078 0l7.06 7.089z"/></g></svg>