<?xml version="1.0" encoding="utf-8"?>
<!-- Generator: Adobe Illustrator 22.1.0, SVG Export Plug-In . SVG Version: 6.00 Build 0)  -->
<svg version="1.1" id="Ebene_1" xmlns="http://www.w3.org/2000/svg" xmlns:xlink="http://www.w3.org/1999/xlink" x="0px" y="0px"
	 viewBox="0 0 100 100" style="enable-background:new 0 0 100 100;" xml:space="preserve">
<style type="text/css">
	.st0{fill:#DFA3C4;}
	.st1{fill:#916A82;}
</style>
<path class="st0" d="M50,88.6c-0.9,0-1.8-0.4-2.4-1.2C46.6,86.1,22,55,22,37.4c0-15.4,12.6-28,28-28s28,12.6,28,28
	C78,55,53.4,86.1,52.4,87.4C51.8,88.1,50.9,88.6,50,88.6L50,88.6z"/>
<path class="st1" d="M50,92.1c-1,0-1.9-0.5-2.5-1.2c-1.1-1.4-27.2-34.4-27.2-53.2C20.2,21.3,33.6,7.9,50,7.9s29.8,13.3,29.8,29.8
	c0,18.8-26.1,51.8-27.2,53.2C51.9,91.6,51,92.1,50,92.1L50,92.1z M50,14.4c-12.8,0-23.2,10.4-23.2,23.2c0,12.3,15,34.8,23.2,45.8
	c8.3-11,23.3-33.6,23.3-45.8C73.2,24.8,62.8,14.4,50,14.4z M50,51.2c-7.5,0-13.6-6.1-13.6-13.6S42.5,24.1,50,24.1
	s13.6,6.1,13.6,13.6S57.5,51.2,50,51.2z M50,30.6c-3.9,0-7.1,3.2-7.1,7.1s3.2,7.1,7.1,7.1s7.1-3.2,7.1-7.1S53.9,30.6,50,30.6z"/>
</svg>
