<?xml version="1.0" encoding="UTF-8"?>
<svg width="47px" height="24px" viewBox="0 0 47 24" version="1.1" xmlns="http://www.w3.org/2000/svg" xmlns:xlink="http://www.w3.org/1999/xlink">
    <!-- Generator: Sketch 52.4 (67378) - http://www.bohemiancoding.com/sketch -->
    <title>noun_Car_1946395_000000</title>
    <desc>Created with Sketch.</desc>
    <g id="Page-1" stroke="none" stroke-width="1" fill="none" fill-rule="evenodd">
        <g id="Edit-Profil-biete" transform="translate(-720.000000, -1139.000000)" fill="#000000" fill-rule="nonzero">
            <g id="noun_Car_1946395_000000" transform="translate(720.000000, 1139.000000)">
                <path d="M43.2226111,8.00779987 C43.2226111,8.00779987 41.8685082,5.35055774 39.2234548,3.2131801 C37.9413162,2.1748638 36.0305918,1.24249814 33.8070433,0.740998428 C27.5505593,-0.668851464 19.6506468,0.161801578 16.1919568,1.33432203 C14.7203612,1.83299639 8.30379351,8.02475197 8.30379351,8.02475197 C3.12383601,8.82150081 0,10.0194494 0,12.8900055 L0,17.746783 C0,18.9927626 1.0471533,20 2.34104118,20 L3.17230173,20 C3.15174052,19.7951621 3.14292857,19.5860862 3.14292857,19.3755975 C3.14292857,15.723832 6.22123617,12.7656901 10.0191863,12.7656901 C13.8141991,12.7656901 16.895444,15.723832 16.895444,19.3755975 C16.895444,19.5860862 16.8807575,19.7951621 16.8616649,20 L29.5259046,20 C29.5082807,19.7951621 29.4950628,19.5860862 29.4950628,19.3755975 C29.4950628,15.723832 32.5763077,12.7656901 36.3713205,12.7656901 C40.1692707,12.7656901 43.2475783,15.723832 43.2475783,19.3755975 C43.2475783,19.5860862 43.235829,19.7951621 43.2167365,20 L44.2947316,20 C45.7898256,20 47,18.8359556 47,17.3964395 L47,11.4519021 C46.9970627,10.0137987 45.4197238,8.55026716 43.2226111,8.00779987 Z M11.9357853,8.34119123 L17.0070621,3.77966287 C17.8530092,3.07473793 20.896069,2.42490732 25.7220799,2.42490732 L25.7250172,8.34119123 L11.9357853,8.34119123 Z M28.3979751,8.34119123 L28.3979751,2.47858898 C32.4426598,2.48706503 38.260015,4.15967251 40.0062496,8.34119123 L28.3979751,8.34119123 Z" id="Shape"></path>
                <path d="M35.9985844,14 C33.2338618,14 31,16.2382569 31,18.9985852 C31,21.7589134 33.2338618,24 35.9985844,24 C38.7604757,24 41,21.7589134 41,18.9985852 C41,16.2382569 38.7604757,14 35.9985844,14 Z M35.9985844,21.7490096 C34.4810306,21.7490096 33.2508494,20.5195246 33.2508494,19 C33.2508494,17.4790606 34.4810306,16.2495756 35.9985844,16.2495756 C37.5189694,16.2495756 38.7491506,17.4790606 38.7491506,19 C38.7491506,20.5195246 37.5189694,21.7490096 35.9985844,21.7490096 Z" id="Shape"></path>
                <path d="M10.0014156,14 C7.23952435,14 5,16.2382569 5,18.9985852 C5,21.7589134 7.23952435,24 10.0014156,24 C12.7633069,24 15,21.7589134 15,18.9985852 C15,16.2382569 12.7633069,14 10.0014156,14 Z M10.0014156,21.7490096 C8.48103058,21.7490096 7.25084938,20.5195246 7.25084938,19 C7.25084938,17.4790606 8.48103058,16.2495756 10.0014156,16.2495756 C11.5189694,16.2495756 12.7519819,17.4790606 12.7519819,19 C12.7533975,20.5195246 11.5203851,21.7490096 10.0014156,21.7490096 Z" id="Shape"></path>
            </g>
        </g>
    </g>
</svg>